<?xml version="1.0" standalone="no"?>
<!DOCTYPE svg PUBLIC "-//W3C//DTD SVG 20010904//EN"
 "http://www.w3.org/TR/2001/REC-SVG-20010904/DTD/svg10.dtd">
<svg version="1.0" xmlns="http://www.w3.org/2000/svg"
 width="1024.000000pt" height="768.000000pt" viewBox="0 0 1024.000000 768.000000"
 preserveAspectRatio="xMidYMid meet">

<g transform="translate(0.000000,768.000000) scale(0.100000,-0.100000)"
fill="#000000" stroke="none">
<path d="M0 3840 l0 -3840 5120 0 5120 0 0 3840 0 3840 -5120 0 -5120 0 0
-3840z m7657 1668 c13 -18 46 -205 40 -222 -3 -8 0 -19 6 -24 23 -19 122 -70
160 -82 49 -15 70 -47 62 -93 l-7 -35 44 5 c37 4 49 1 74 -20 26 -23 29 -31
28 -81 0 -97 -71 -171 -171 -178 -22 -2 -39 -6 -37 -9 8 -13 -58 -87 -88 -100
-21 -9 -71 -14 -138 -14 -123 1 -160 15 -227 88 -46 49 -57 88 -68 227 -11
133 17 210 77 210 19 0 28 5 28 15 0 33 30 71 78 99 l50 29 -2 66 c-1 54 3 72
22 99 24 33 52 41 69 20z m-5090 -109 c9 -18 10 -50 5 -112 l-8 -86 44 -17
c24 -9 59 -30 78 -46 31 -28 34 -35 34 -89 0 -56 1 -59 25 -59 30 0 32 -19 10
-160 -8 -52 -19 -140 -25 -195 -14 -138 -51 -697 -47 -702 6 -5 44 191 91 469
24 136 45 250 48 254 6 5 40 -45 260 -381 182 -280 200 -305 206 -304 8 0 241
330 411 582 62 92 118 166 125 164 6 -2 12 -19 14 -38 8 -95 178 -1042 218
-1222 l16 -69 116 223 c63 123 209 414 324 647 115 233 214 422 220 420 11 -4
24 -26 100 -168 126 -237 563 -1014 650 -1157 l20 -33 -159 0 -159 0 -54 93
c-30 50 -67 111 -82 135 l-29 42 -112 0 c-62 0 -183 -3 -269 -7 l-157 -6 -37
-86 c-20 -47 -48 -108 -61 -135 l-25 -48 -279 4 c-159 2 -283 8 -288 13 -6 6
-19 53 -30 105 -43 197 -126 530 -132 530 -11 0 -144 -210 -244 -383 -49 -86
-92 -157 -95 -157 -5 0 -226 309 -300 422 -25 37 -48 68 -51 68 -7 0 -25 -110
-65 -402 -15 -108 -31 -203 -35 -210 -6 -9 -20 -6 -58 12 -46 21 -58 34 -128
144 -217 340 -393 598 -397 585 -5 -16 -81 -560 -92 -658 l-7 -63 -171 7 c-94
4 -173 9 -175 11 -14 13 253 1304 272 1316 8 5 4 47 -16 146 -33 167 -34 192
-8 199 14 3 23 20 31 55 14 56 47 92 100 109 19 6 39 15 44 20 6 5 9 54 7 110
-4 143 -7 140 173 137 140 -3 141 -3 153 -29z m3158 -895 c105 -102 291 -283
415 -401 l225 -215 3 386 2 386 155 0 155 0 2 -540 c4 -891 7 -794 -20 -798
-15 -2 -37 9 -65 34 -110 97 -428 398 -672 636 l-110 107 -3 -384 -2 -385
-140 0 -140 0 0 680 c0 374 1 680 3 680 1 0 88 -84 192 -186z m1563 -436 c-4
-571 -5 -596 -25 -670 -27 -96 -44 -129 -96 -185 -67 -73 -112 -90 -247 -94
-63 -2 -116 -1 -117 4 -2 4 -3 81 -3 171 l0 163 39 7 c47 7 93 43 115 90 14
30 16 86 16 433 0 220 3 461 7 536 l6 137 154 0 154 0 -3 -592z m800 181 l2
-405 -35 -17 c-55 -26 -139 -91 -172 -134 -37 -46 -87 -142 -104 -202 -10 -35
-14 -40 -20 -25 -10 25 -11 1023 -1 1094 l7 55 6 -80 5 -80 2 96 c1 53 5 99 9
103 4 3 72 5 152 4 l146 -3 3 -406z m352 -404 c83 -22 173 -72 221 -123 l44
-46 -43 35 c-110 87 -195 124 -320 139 l-67 7 55 2 c30 0 80 -6 110 -14z m62
-66 c68 -26 100 -50 89 -67 -6 -10 -23 -5 -77 23 -38 20 -97 41 -131 48 -35 6
-63 16 -63 21 0 14 124 -2 182 -25z m-29 -74 c102 -53 104 -71 2 -23 -38 17
-93 37 -124 45 l-56 13 63 -4 c43 -3 79 -13 115 -31z m-48 -38 c17 -7 41 -20
54 -29 20 -14 22 -20 11 -32 -7 -9 -10 -26 -6 -39 l6 -24 -68 14 c-37 8 -77
17 -89 19 -18 3 -22 12 -25 54 l-3 50 45 -1 c25 0 59 -6 75 -12z m-52 -221
c103 -44 116 -182 25 -250 -61 -44 -167 -15 -204 56 -23 45 -15 130 16 163 39
42 108 55 163 31z m-594 -265 c11 -35 17 -70 14 -77 -3 -9 0 -14 7 -12 7 2 15
-3 18 -11 3 -8 0 -11 -7 -7 -7 5 -9 1 -5 -8 3 -9 10 -16 16 -16 5 0 7 -4 3 -9
-7 -12 38 -97 67 -128 16 -18 24 -20 30 -11 6 10 8 10 8 1 0 -6 -26 -40 -57
-74 -71 -76 -135 -109 -214 -109 l-56 0 -11 53 c-24 114 -24 110 9 147 40 45
77 123 105 225 18 62 23 72 23 45 0 -19 -4 -55 -10 -79 -5 -24 -8 -46 -5 -48
7 -7 26 66 33 130 3 31 7 56 9 54 2 -2 12 -31 23 -66z m-3436 -68 l2287 -6 0
-30 0 -30 -2022 8 c-1113 4 -2207 11 -2433 14 -390 6 -410 7 -413 25 -7 33 18
38 158 32 74 -3 1164 -9 2423 -13z m3887 -53 c8 -1 29 -7 45 -16 l30 -14 -48
5 c-31 3 -64 15 -92 35 -63 43 -64 53 -3 19 29 -16 60 -29 68 -29z m-24 -58
c-7 -6 -105 40 -118 55 -6 8 18 0 55 -18 36 -18 65 -35 63 -37z m-26 -45 c19
-9 27 -16 18 -16 -23 -1 -128 61 -158 95 -18 20 -8 15 40 -18 36 -25 81 -53
100 -61z m-30 -31 c47 -23 66 -36 51 -36 -35 0 -153 66 -192 107 l-34 36 50
-36 c28 -20 84 -52 125 -71z m-159 37 c13 -16 12 -17 -3 -4 -10 7 -18 15 -18
17 0 8 8 3 21 -13z m129 -90 c0 -7 -81 41 -92 55 -7 7 12 -1 40 -19 29 -17 52
-34 52 -36z m2008 -2575 c7 -7 12 -40 12 -78 0 -38 -5 -71 -12 -78 -17 -17
-174 -16 -180 1 -7 18 -1 143 6 156 10 15 159 14 174 -1z m-456 -35 c23 -21
23 -67 1 -84 -15 -11 -16 -11 -5 1 6 8 12 26 12 41 0 29 -13 44 -45 52 -19 4
-19 5 -1 6 11 0 28 -6 38 -16z m55 -20 c-3 -10 -5 -4 -5 12 0 17 2 24 5 18 2
-7 2 -21 0 -30z m-359 2 c-8 -19 -8 -32 1 -52 10 -26 10 -27 -4 -9 -18 23 -19
40 -5 67 15 28 22 23 8 -6z m192 5 c0 -11 -2 -20 -4 -20 -2 0 -6 9 -9 20 -3
11 -1 20 4 20 5 0 9 -9 9 -20z m215 1 c-16 -19 -16 -21 5 -50 12 -17 19 -31
16 -31 -2 0 -14 14 -26 31 -21 29 -21 31 -5 50 10 10 20 19 23 19 3 0 -3 -9
-13 -19z m-178 -48 c-3 -10 -5 -2 -5 17 0 19 2 27 5 18 2 -10 2 -26 0 -35z
m-147 -8 c0 -14 -2 -25 -4 -25 -2 0 -6 11 -8 25 -3 14 -1 25 3 25 5 0 9 -11 9
-25z m99 -2 c11 -28 11 -28 -6 -7 -10 12 -25 24 -33 27 -10 4 -8 6 6 6 14 1
25 -9 33 -26z m183 2 c-2 -14 -6 -25 -8 -25 -2 0 -4 11 -4 25 0 14 4 25 9 25
4 0 6 -11 3 -25z m-85 -31 c-3 -3 -12 -4 -19 -1 -8 3 -5 6 6 6 11 1 17 -2 13
-5z"/>
<path d="M7608 5445 c-8 -18 -8 -38 -1 -72 16 -66 4 -89 -61 -118 -48 -21 -66
-39 -66 -66 0 -12 278 -10 286 2 3 5 -15 18 -39 30 l-44 21 -26 -26 c-26 -26
-57 -35 -57 -17 0 5 7 16 15 25 29 28 47 98 40 151 -12 100 -25 118 -47 70z"/>
<path d="M7690 5120 c-52 -4 -141 -8 -196 -9 -107 -1 -114 -4 -114 -52 0 -18
8 -19 143 -18 78 1 186 4 240 8 102 6 120 15 115 56 -3 24 -39 26 -188 15z"/>
<path d="M7943 5010 c-14 -6 -24 -20 -27 -42 -3 -18 -7 -49 -10 -68 -3 -19 -8
-46 -12 -59 -6 -21 -5 -23 17 -16 87 25 149 135 101 178 -20 19 -36 20 -69 7z"/>
<path d="M7550 4980 l-165 -5 3 -40 c7 -99 12 -114 65 -166 76 -74 98 -84 194
-84 91 0 119 13 160 76 13 19 27 39 33 46 5 7 10 51 10 98 l0 85 -67 -2 c-38
-1 -142 -5 -233 -8z"/>
<path d="M2285 5371 c-3 -6 -3 -46 1 -91 6 -67 10 -80 23 -76 41 12 141 16
189 8 l52 -9 0 82 c0 66 -3 84 -16 89 -26 10 -242 7 -249 -3z m223 -100 c19
-1 32 -6 32 -13 0 -10 -28 -13 -105 -13 -67 0 -104 3 -102 10 4 11 67 22 112
19 17 -2 45 -3 63 -3z"/>
<path d="M2321 5149 c-126 -24 -177 -58 -188 -122 l-5 -36 271 -1 271 0 0 44
c0 62 -28 91 -105 111 -64 16 -173 18 -244 4z"/>
<path d="M2075 4920 c14 -27 26 -77 51 -215 16 -91 26 -116 67 -170 70 -94
390 -541 459 -642 17 -25 28 -20 27 11 0 21 -1 21 -9 1 -14 -34 -11 99 10 410
21 311 35 465 50 559 5 33 8 61 7 62 -1 1 -153 4 -339 6 l-336 3 13 -25z"/>
<path d="M4734 4105 c-4 -11 -37 -85 -72 -165 -35 -80 -66 -153 -69 -162 -5
-17 7 -18 167 -18 94 0 170 3 168 8 -12 25 -132 256 -157 302 -25 46 -31 52
-37 35z"/>
<path d="M8265 3430 c-3 -6 1 -7 9 -4 18 7 21 14 7 14 -6 0 -13 -4 -16 -10z"/>
<path d="M8296 3354 c-12 -31 -6 -54 13 -54 20 0 34 32 24 56 -7 19 -29 18
-37 -2z"/>
<path d="M7771 3124 c0 -11 3 -14 6 -6 3 7 2 16 -1 19 -3 4 -6 -2 -5 -13z"/>
<path d="M7688 3010 c-9 -22 -15 -40 -13 -40 8 0 36 61 33 70 -2 5 -11 -9 -20
-30z"/>
<path d="M2493 3083 c9 -2 23 -2 30 0 6 3 -1 5 -18 5 -16 0 -22 -2 -12 -5z"/>
<path d="M2568 3083 c17 -2 47 -2 65 0 17 2 3 4 -33 4 -36 0 -50 -2 -32 -4z"/>
<path d="M2718 3083 c12 -2 32 -2 45 0 12 2 2 4 -23 4 -25 0 -35 -2 -22 -4z"/>
<path d="M10035 240 c-15 -22 -32 -37 -38 -33 -6 3 -7 1 -3 -6 4 -6 2 -18 -4
-26 -10 -12 -9 -15 7 -15 13 0 33 20 57 55 21 30 43 52 49 48 6 -3 7 -1 3 5
-14 23 -44 11 -71 -28z"/>
</g>
</svg>
